<svg width="40" height="40" viewBox="0 0 40 40" fill="none" xmlns="http://www.w3.org/2000/svg">
<rect width="40" height="40" rx="20" fill="#F5AF37"/>
<path fill-rule="evenodd" clip-rule="evenodd" d="M13.0675 19.0363C13.0161 19.1601 12.9896 19.2928 12.9896 19.4269H12.99V25.787C12.9898 25.9952 12.913 26.1962 12.7742 26.3515C12.6355 26.5068 12.4444 26.6056 12.2374 26.6292C11.762 26.685 11.362 26.725 11.0408 26.7533C10.7532 26.779 10.4643 26.7221 10.208 26.5893C9.95165 26.4565 9.73854 26.2533 9.59367 26.0036C8.54325 24.1779 7.99352 22.1073 8.00005 20.001C7.9994 13.3446 13.4998 7.91168 20.1554 8.00109C22.6235 8.0351 25.0209 8.83063 27.0198 10.2789C29.0186 11.7272 30.5213 13.7575 31.3225 16.0923C31.4142 16.3592 31.4385 16.6447 31.3931 16.9233C31.3476 17.2019 31.234 17.4649 31.0622 17.6889C29.8782 19.2319 28.3861 20.5153 26.914 21.5822V14.3394C26.9139 14.0691 26.8066 13.81 26.6155 13.6189C26.4244 13.4279 26.1652 13.3205 25.895 13.3205H24.197C24.0632 13.3205 23.9307 13.3469 23.8071 13.3981C23.6835 13.4493 23.5711 13.5243 23.4765 13.6189C23.3819 13.7135 23.3069 13.8259 23.2557 13.9495C23.2045 14.0731 23.1782 14.2056 23.1782 14.3394V23.1351C23.178 23.3021 23.1287 23.4654 23.0364 23.6046C22.9441 23.7438 22.8128 23.8527 22.659 23.9178C22.2447 24.0926 21.8198 24.2647 21.8198 24.2647V16.8867C21.8197 16.6165 21.7124 16.3574 21.5213 16.1663C21.3302 15.9753 21.0711 15.8679 20.8009 15.8679H19.1028C18.969 15.8679 18.8365 15.8942 18.7129 15.9454C18.5893 15.9967 18.4769 16.0717 18.3823 16.1664C18.2877 16.261 18.2126 16.3733 18.1614 16.497C18.1102 16.6206 18.0839 16.7531 18.0839 16.887V24.8359C18.0839 25.0272 18.0192 25.2129 17.9004 25.3629C17.7816 25.5129 17.6156 25.6183 17.4294 25.6622C17.1612 25.7251 16.9163 25.7854 16.7254 25.8419V19.4336C16.7254 19.1634 16.6181 18.9043 16.427 18.7132C16.2359 18.5221 15.9768 18.4148 15.7066 18.4148L14.0118 18.4092C13.8778 18.4086 13.745 18.4345 13.621 18.4853C13.497 18.5362 13.3842 18.6111 13.2893 18.7056C13.1943 18.8002 13.1189 18.9126 13.0675 19.0363ZM12.953 29.7045C12.9529 29.7045 12.9528 29.7044 12.9527 29.7043L12.9526 29.7046C12.9528 29.7046 12.9529 29.7045 12.953 29.7045ZM12.953 29.7045C14.7428 31.0065 16.858 31.788 19.0644 31.9626C21.271 32.1372 23.4828 31.698 25.4552 30.6935C27.4276 29.6891 29.0837 28.1586 30.2403 26.2714C31.3969 24.3842 32.0088 22.2138 32.0085 20.0003C32.0085 19.724 31.9957 19.4508 31.9772 19.1791C27.5934 25.7169 19.4994 28.7734 12.953 29.7045Z" fill="black"/>
</svg>
