<svg width="803" height="120" viewBox="0 0 803 120" fill="none" xmlns="http://www.w3.org/2000/svg">
<mask id="path-1-outside-1_410_34" maskUnits="userSpaceOnUse" x="0.742432" y="0.651978" width="802" height="119" fill="black">
<rect fill="white" x="0.742432" y="0.651978" width="802" height="119"/>
<path d="M134.63 115.268V94.28H66.6504C66.5184 94.28 66.3864 94.148 66.3864 94.016V53.756C66.3864 49.664 64.1424 47.42 59.5224 46.76C64.0104 46.232 66.2544 43.988 66.2544 39.896V15.344C66.2544 8.21598 61.7664 4.65198 52.6584 4.65198H4.74243V89H32.1984V55.208H38.6664C38.7984 55.208 38.9304 55.34 38.9304 55.472V104.84C38.9304 111.836 43.5504 115.268 52.6584 115.268H134.63ZM120.902 89C130.01 89 134.63 85.568 134.63 78.572V4.65198H107.174V67.748C107.174 67.88 107.042 68.012 106.91 68.012H100.706C100.574 68.012 100.442 67.88 100.442 67.748V4.65198H72.9864V78.572C72.9864 85.568 77.6064 89 86.7144 89H120.902Z"/>
<path d="M189.035 89C198.143 89 202.763 85.568 202.763 78.572V46.76C202.763 39.764 198.143 36.332 189.035 36.332H168.839C168.707 36.332 168.575 36.2 168.575 36.068V26.036C168.575 25.904 168.707 25.772 168.839 25.772H175.043C175.175 25.772 175.307 25.904 175.307 26.036V30.92H202.763V15.344C202.763 8.21598 198.143 4.65198 189.035 4.65198H154.847C145.739 4.65198 141.119 8.21598 141.119 15.344V46.76C141.119 53.888 145.739 57.452 154.847 57.452H175.043C175.175 57.452 175.307 57.584 175.307 57.716V67.748C175.307 67.88 175.175 68.012 175.043 68.012H168.839C168.707 68.012 168.575 67.88 168.575 67.748V62.732H141.119V78.572C141.119 85.568 145.739 89 154.847 89H189.035Z"/>
<path d="M261.325 89C270.433 89 275.053 85.568 275.053 78.572V36.332H247.729V67.748C247.729 67.88 247.597 68.012 247.465 68.012H241.129C240.997 68.012 240.865 67.88 240.865 67.748V30.92H275.053V10.064H240.865V4.65198H213.409V10.064H206.677V30.92H213.409V78.572C213.409 85.568 218.029 89 227.137 89H261.325ZM329.437 115.268C338.545 115.268 343.165 111.836 343.165 104.84V4.65198H315.709V68.012H309.241C309.109 68.012 308.977 67.88 308.977 67.748V4.65198H281.521V78.572C281.521 85.568 286.141 89 295.249 89H315.709V94.016C315.709 94.148 315.577 94.28 315.445 94.28H213.409V115.268H329.437Z"/>
<path d="M509.229 115.268V94.28H441.381C441.249 94.28 441.117 94.148 441.117 94.016V53.756C441.117 49.664 438.873 47.42 434.253 46.76C438.741 46.232 440.985 43.988 440.985 39.896V15.344C440.985 8.21598 436.497 4.65198 427.389 4.65198H379.473V89H406.929V55.208H413.397C413.529 55.208 413.661 55.34 413.661 55.472V104.84C413.661 111.836 418.281 115.268 427.389 115.268H509.229ZM481.773 67.748C481.773 67.88 481.641 68.012 481.509 68.012H475.305C475.173 68.012 475.041 67.88 475.041 67.748V26.036C475.041 25.904 475.173 25.772 475.305 25.772H481.509C481.641 25.772 481.773 25.904 481.773 26.036V67.748ZM495.501 89C504.609 89 509.229 85.568 509.229 78.572V15.344C509.229 8.21598 504.609 4.65198 495.501 4.65198H461.313C452.205 4.65198 447.585 8.21598 447.585 15.344V78.572C447.585 85.568 452.205 89 461.313 89H495.501Z"/>
<path d="M595.452 115.268V94.28H543.312V4.65198H515.856V115.268H595.452ZM595.452 89V68.012H577.632V4.65198H550.176V89H595.452Z"/>
<path d="M648.457 89C657.565 89 662.185 85.568 662.185 78.572V62.732H634.729V67.748C634.729 67.88 634.597 68.012 634.465 68.012H628.261C628.129 68.012 627.997 67.88 627.997 67.748V57.452H662.185V15.344C662.185 8.21598 657.565 4.65198 648.457 4.65198H614.269C605.161 4.65198 600.541 8.21598 600.541 15.344V78.572C600.541 85.568 605.161 89 614.269 89H648.457Z"/>
<path d="M798.495 115.268V94.28H730.647C730.515 94.28 730.383 94.148 730.383 94.016V53.756C730.383 49.664 728.139 47.42 723.519 46.76C728.007 46.232 730.251 43.988 730.251 39.896V15.344C730.251 8.21598 725.763 4.65198 716.655 4.65198H668.739V89H696.195V55.208H702.663C702.795 55.208 702.927 55.34 702.927 55.472V104.84C702.927 111.836 707.547 115.268 716.655 115.268H798.495ZM784.767 89C793.875 89 798.495 85.568 798.495 78.572V46.76C798.495 39.764 793.875 36.332 784.767 36.332H764.571C764.439 36.332 764.307 36.2 764.307 36.068V26.036C764.307 25.904 764.439 25.772 764.571 25.772H770.775C770.907 25.772 771.039 25.904 771.039 26.036V30.92H798.495V15.344C798.495 8.21598 793.875 4.65198 784.767 4.65198H750.579C741.471 4.65198 736.851 8.21598 736.851 15.344V46.76C736.851 53.888 741.471 57.452 750.579 57.452H770.775C770.907 57.452 771.039 57.584 771.039 57.716V67.748C771.039 67.88 770.907 68.012 770.775 68.012H764.571C764.439 68.012 764.307 67.88 764.307 67.748V62.732H736.851V78.572C736.851 85.568 741.471 89 750.579 89H784.767Z"/>
<path d="M24 27C30.6274 27 36 21.6274 36 15C36 21.6274 41.3726 27 48 27C41.3726 27 36 32.3726 36 39C36 32.3726 30.6274 27 24 27Z"/>
<path d="M398 27C404.627 27 410 21.6274 410 15C410 21.6274 415.373 27 422 27C415.373 27 410 32.3726 410 39C410 32.3726 404.627 27 398 27Z"/>
<path d="M620 27C626.627 27 632 21.6274 632 15C632 21.6274 637.373 27 644 27C637.373 27 632 32.3726 632 39C632 32.3726 626.627 27 620 27Z"/>
<path d="M687 27C693.627 27 699 21.6274 699 15C699 21.6274 704.373 27 711 27C704.373 27 699 32.3726 699 39C699 32.3726 693.627 27 687 27Z"/>
</mask>
<path d="M134.63 115.268V94.28H66.6504C66.5184 94.28 66.3864 94.148 66.3864 94.016V53.756C66.3864 49.664 64.1424 47.42 59.5224 46.76C64.0104 46.232 66.2544 43.988 66.2544 39.896V15.344C66.2544 8.21598 61.7664 4.65198 52.6584 4.65198H4.74243V89H32.1984V55.208H38.6664C38.7984 55.208 38.9304 55.34 38.9304 55.472V104.84C38.9304 111.836 43.5504 115.268 52.6584 115.268H134.63ZM120.902 89C130.01 89 134.63 85.568 134.63 78.572V4.65198H107.174V67.748C107.174 67.88 107.042 68.012 106.91 68.012H100.706C100.574 68.012 100.442 67.88 100.442 67.748V4.65198H72.9864V78.572C72.9864 85.568 77.6064 89 86.7144 89H120.902Z" fill="white"/>
<path d="M189.035 89C198.143 89 202.763 85.568 202.763 78.572V46.76C202.763 39.764 198.143 36.332 189.035 36.332H168.839C168.707 36.332 168.575 36.2 168.575 36.068V26.036C168.575 25.904 168.707 25.772 168.839 25.772H175.043C175.175 25.772 175.307 25.904 175.307 26.036V30.92H202.763V15.344C202.763 8.21598 198.143 4.65198 189.035 4.65198H154.847C145.739 4.65198 141.119 8.21598 141.119 15.344V46.76C141.119 53.888 145.739 57.452 154.847 57.452H175.043C175.175 57.452 175.307 57.584 175.307 57.716V67.748C175.307 67.88 175.175 68.012 175.043 68.012H168.839C168.707 68.012 168.575 67.88 168.575 67.748V62.732H141.119V78.572C141.119 85.568 145.739 89 154.847 89H189.035Z" fill="white"/>
<path d="M261.325 89C270.433 89 275.053 85.568 275.053 78.572V36.332H247.729V67.748C247.729 67.88 247.597 68.012 247.465 68.012H241.129C240.997 68.012 240.865 67.88 240.865 67.748V30.92H275.053V10.064H240.865V4.65198H213.409V10.064H206.677V30.92H213.409V78.572C213.409 85.568 218.029 89 227.137 89H261.325ZM329.437 115.268C338.545 115.268 343.165 111.836 343.165 104.84V4.65198H315.709V68.012H309.241C309.109 68.012 308.977 67.88 308.977 67.748V4.65198H281.521V78.572C281.521 85.568 286.141 89 295.249 89H315.709V94.016C315.709 94.148 315.577 94.28 315.445 94.28H213.409V115.268H329.437Z" fill="white"/>
<path d="M509.229 115.268V94.28H441.381C441.249 94.28 441.117 94.148 441.117 94.016V53.756C441.117 49.664 438.873 47.42 434.253 46.76C438.741 46.232 440.985 43.988 440.985 39.896V15.344C440.985 8.21598 436.497 4.65198 427.389 4.65198H379.473V89H406.929V55.208H413.397C413.529 55.208 413.661 55.34 413.661 55.472V104.84C413.661 111.836 418.281 115.268 427.389 115.268H509.229ZM481.773 67.748C481.773 67.88 481.641 68.012 481.509 68.012H475.305C475.173 68.012 475.041 67.88 475.041 67.748V26.036C475.041 25.904 475.173 25.772 475.305 25.772H481.509C481.641 25.772 481.773 25.904 481.773 26.036V67.748ZM495.501 89C504.609 89 509.229 85.568 509.229 78.572V15.344C509.229 8.21598 504.609 4.65198 495.501 4.65198H461.313C452.205 4.65198 447.585 8.21598 447.585 15.344V78.572C447.585 85.568 452.205 89 461.313 89H495.501Z" fill="white"/>
<path d="M595.452 115.268V94.28H543.312V4.65198H515.856V115.268H595.452ZM595.452 89V68.012H577.632V4.65198H550.176V89H595.452Z" fill="white"/>
<path d="M648.457 89C657.565 89 662.185 85.568 662.185 78.572V62.732H634.729V67.748C634.729 67.88 634.597 68.012 634.465 68.012H628.261C628.129 68.012 627.997 67.88 627.997 67.748V57.452H662.185V15.344C662.185 8.21598 657.565 4.65198 648.457 4.65198H614.269C605.161 4.65198 600.541 8.21598 600.541 15.344V78.572C600.541 85.568 605.161 89 614.269 89H648.457Z" fill="white"/>
<path d="M798.495 115.268V94.28H730.647C730.515 94.28 730.383 94.148 730.383 94.016V53.756C730.383 49.664 728.139 47.42 723.519 46.76C728.007 46.232 730.251 43.988 730.251 39.896V15.344C730.251 8.21598 725.763 4.65198 716.655 4.65198H668.739V89H696.195V55.208H702.663C702.795 55.208 702.927 55.34 702.927 55.472V104.84C702.927 111.836 707.547 115.268 716.655 115.268H798.495ZM784.767 89C793.875 89 798.495 85.568 798.495 78.572V46.76C798.495 39.764 793.875 36.332 784.767 36.332H764.571C764.439 36.332 764.307 36.2 764.307 36.068V26.036C764.307 25.904 764.439 25.772 764.571 25.772H770.775C770.907 25.772 771.039 25.904 771.039 26.036V30.92H798.495V15.344C798.495 8.21598 793.875 4.65198 784.767 4.65198H750.579C741.471 4.65198 736.851 8.21598 736.851 15.344V46.76C736.851 53.888 741.471 57.452 750.579 57.452H770.775C770.907 57.452 771.039 57.584 771.039 57.716V67.748C771.039 67.88 770.907 68.012 770.775 68.012H764.571C764.439 68.012 764.307 67.88 764.307 67.748V62.732H736.851V78.572C736.851 85.568 741.471 89 750.579 89H784.767Z" fill="white"/>
<path d="M24 27C30.6274 27 36 21.6274 36 15C36 21.6274 41.3726 27 48 27C41.3726 27 36 32.3726 36 39C36 32.3726 30.6274 27 24 27Z" fill="black"/>
<path d="M398 27C404.627 27 410 21.6274 410 15C410 21.6274 415.373 27 422 27C415.373 27 410 32.3726 410 39C410 32.3726 404.627 27 398 27Z" fill="black"/>
<path d="M620 27C626.627 27 632 21.6274 632 15C632 21.6274 637.373 27 644 27C637.373 27 632 32.3726 632 39C632 32.3726 626.627 27 620 27Z" fill="black"/>
<path d="M687 27C693.627 27 699 21.6274 699 15C699 21.6274 704.373 27 711 27C704.373 27 699 32.3726 699 39C699 32.3726 693.627 27 687 27Z" fill="black"/>
<path d="M134.63 115.268V119.268H138.63V115.268H134.63ZM134.63 94.28H138.63V90.28H134.63V94.28ZM59.5224 46.76L59.0551 42.7874L58.9567 50.7198L59.5224 46.76ZM4.74243 4.65198V0.651978H0.742432V4.65198H4.74243ZM4.74243 89H0.742432V93H4.74243V89ZM32.1984 89V93H36.1984V89H32.1984ZM32.1984 55.208V51.208H28.1984V55.208H32.1984ZM134.63 4.65198H138.63V0.651978H134.63V4.65198ZM107.174 4.65198V0.651978H103.174V4.65198H107.174ZM100.442 4.65198H104.442V0.651978H100.442V4.65198ZM72.9864 4.65198V0.651978H68.9864V4.65198H72.9864ZM175.307 30.92H171.307V34.92H175.307V30.92ZM202.763 30.92V34.92H206.763V30.92H202.763ZM168.575 62.732H172.575V58.732H168.575V62.732ZM141.119 62.732V58.732H137.119V62.732H141.119ZM275.053 36.332H279.053V32.332H275.053V36.332ZM247.729 36.332V32.332H243.729V36.332H247.729ZM240.865 30.92V26.92H236.865V30.92H240.865ZM275.053 30.92V34.92H279.053V30.92H275.053ZM275.053 10.064H279.053V6.06398H275.053V10.064ZM240.865 10.064H236.865V14.064H240.865V10.064ZM240.865 4.65198H244.865V0.651978H240.865V4.65198ZM213.409 4.65198V0.651978H209.409V4.65198H213.409ZM213.409 10.064V14.064H217.409V10.064H213.409ZM206.677 10.064V6.06398H202.677V10.064H206.677ZM206.677 30.92H202.677V34.92H206.677V30.92ZM213.409 30.92H217.409V26.92H213.409V30.92ZM343.165 4.65198H347.165V0.651978H343.165V4.65198ZM315.709 4.65198V0.651978H311.709V4.65198H315.709ZM315.709 68.012V72.012H319.709V68.012H315.709ZM308.977 4.65198H312.977V0.651978H308.977V4.65198ZM281.521 4.65198V0.651978H277.521V4.65198H281.521ZM315.709 89H319.709V85H315.709V89ZM213.409 94.28V90.28H209.409V94.28H213.409ZM213.409 115.268H209.409V119.268H213.409V115.268ZM509.229 115.268V119.268H513.229V115.268H509.229ZM509.229 94.28H513.229V90.28H509.229V94.28ZM434.253 46.76L433.786 42.7874L433.687 50.7198L434.253 46.76ZM379.473 4.65198V0.651978H375.473V4.65198H379.473ZM379.473 89H375.473V93H379.473V89ZM406.929 89V93H410.929V89H406.929ZM406.929 55.208V51.208H402.929V55.208H406.929ZM595.452 115.268V119.268H599.452V115.268H595.452ZM595.452 94.28H599.452V90.28H595.452V94.28ZM543.312 94.28H539.312V98.28H543.312V94.28ZM543.312 4.65198H547.312V0.651978H543.312V4.65198ZM515.856 4.65198V0.651978H511.856V4.65198H515.856ZM515.856 115.268H511.856V119.268H515.856V115.268ZM595.452 89V93H599.452V89H595.452ZM595.452 68.012H599.452V64.012H595.452V68.012ZM577.632 68.012H573.632V72.012H577.632V68.012ZM577.632 4.65198H581.632V0.651978H577.632V4.65198ZM550.176 4.65198V0.651978H546.176V4.65198H550.176ZM550.176 89H546.176V93H550.176V89ZM662.185 62.732H666.185V58.732H662.185V62.732ZM634.729 62.732V58.732H630.729V62.732H634.729ZM627.997 57.452V53.452H623.997V57.452H627.997ZM662.185 57.452V61.452H666.185V57.452H662.185ZM798.495 115.268V119.268H802.495V115.268H798.495ZM798.495 94.28H802.495V90.28H798.495V94.28ZM723.519 46.76L723.051 42.7874L722.953 50.7198L723.519 46.76ZM668.739 4.65198V0.651978H664.739V4.65198H668.739ZM668.739 89H664.739V93H668.739V89ZM696.195 89V93H700.195V89H696.195ZM696.195 55.208V51.208H692.195V55.208H696.195ZM771.039 30.92H767.039V34.92H771.039V30.92ZM798.495 30.92V34.92H802.495V30.92H798.495ZM764.307 62.732H768.307V58.732H764.307V62.732ZM736.851 62.732V58.732H732.851V62.732H736.851ZM138.63 115.268V94.28H130.63V115.268H138.63ZM134.63 90.28H66.6504V98.28H134.63V90.28ZM66.6504 90.28C67.8854 90.28 68.7855 90.8572 69.2974 91.3691C69.8093 91.881 70.3864 92.7811 70.3864 94.016H62.3864C62.3864 95.3829 63.0296 96.415 63.6405 97.0259C64.2514 97.6368 65.2835 98.28 66.6504 98.28V90.28ZM70.3864 94.016V53.756H62.3864V94.016H70.3864ZM70.3864 53.756C70.3864 50.9522 69.5948 48.252 67.5356 46.163C65.5546 44.1532 62.8758 43.1984 60.0881 42.8002L58.9567 50.7198C60.7891 50.9815 61.5423 51.4788 61.8382 51.779C62.056 52 62.3864 52.4678 62.3864 53.756H70.3864ZM59.9898 50.7326C62.7571 50.407 65.4353 49.4866 67.4204 47.4722C69.468 45.3945 70.2544 42.6904 70.2544 39.896H62.2544C62.2544 41.1936 61.9188 41.6575 61.7224 41.8568C61.4636 42.1194 60.7757 42.5849 59.0551 42.7874L59.9898 50.7326ZM70.2544 39.896V15.344H62.2544V39.896H70.2544ZM70.2544 15.344C70.2544 10.8852 68.8036 6.90757 65.3483 4.18369C62.0766 1.60455 57.6235 0.651978 52.6584 0.651978V8.65198C56.8014 8.65198 59.1463 9.4814 60.3956 10.4663C61.4613 11.3064 62.2544 12.6748 62.2544 15.344H70.2544ZM52.6584 0.651978H4.74243V8.65198H52.6584V0.651978ZM0.742432 4.65198V89H8.74243V4.65198H0.742432ZM4.74243 93H32.1984V85H4.74243V93ZM36.1984 89V55.208H28.1984V89H36.1984ZM32.1984 59.208H38.6664V51.208H32.1984V59.208ZM38.6664 59.208C37.4315 59.208 36.5314 58.6308 36.0195 58.1189C35.5076 57.607 34.9304 56.7069 34.9304 55.472H42.9304C42.9304 54.1051 42.2872 53.0729 41.6763 52.462C41.0655 51.8512 40.0333 51.208 38.6664 51.208V59.208ZM34.9304 55.472V104.84H42.9304V55.472H34.9304ZM34.9304 104.84C34.9304 109.3 36.4618 113.221 39.9679 115.869C43.2616 118.357 47.7172 119.268 52.6584 119.268V111.268C48.4917 111.268 46.0832 110.463 44.7899 109.486C43.7091 108.669 42.9304 107.376 42.9304 104.84H34.9304ZM52.6584 119.268H134.63V111.268H52.6584V119.268ZM120.902 93C125.844 93 130.299 92.0893 133.593 89.6012C137.099 86.9527 138.63 83.0324 138.63 78.572H130.63C130.63 81.1075 129.852 82.4013 128.771 83.2178C127.478 84.1947 125.069 85 120.902 85V93ZM138.63 78.572V4.65198H130.63V78.572H138.63ZM134.63 0.651978H107.174V8.65198H134.63V0.651978ZM103.174 4.65198V67.748H111.174V4.65198H103.174ZM103.174 67.748C103.174 66.5131 103.752 65.6129 104.264 65.1011C104.775 64.5892 105.676 64.012 106.91 64.012V72.012C108.277 72.012 109.309 71.3688 109.92 70.7579C110.531 70.147 111.174 69.1149 111.174 67.748H103.174ZM106.91 64.012H100.706V72.012H106.91V64.012ZM100.706 64.012C101.941 64.012 102.842 64.5892 103.353 65.1011C103.865 65.6129 104.442 66.5131 104.442 67.748H96.4424C96.4424 69.1149 97.0856 70.147 97.6965 70.7579C98.3074 71.3688 99.3395 72.012 100.706 72.012V64.012ZM104.442 67.748V4.65198H96.4424V67.748H104.442ZM100.442 0.651978H72.9864V8.65198H100.442V0.651978ZM68.9864 4.65198V78.572H76.9864V4.65198H68.9864ZM68.9864 78.572C68.9864 83.0324 70.5178 86.9527 74.0239 89.6012C77.3176 92.0893 81.7732 93 86.7144 93V85C82.5477 85 80.1392 84.1947 78.8459 83.2178C77.7651 82.4013 76.9864 81.1075 76.9864 78.572H68.9864ZM86.7144 93H120.902V85H86.7144V93ZM189.035 93C193.976 93 198.432 92.0893 201.726 89.6012C205.232 86.9527 206.763 83.0324 206.763 78.572H198.763C198.763 81.1075 197.984 82.4013 196.904 83.2178C195.61 84.1947 193.202 85 189.035 85V93ZM206.763 78.572V46.76H198.763V78.572H206.763ZM206.763 46.76C206.763 42.2995 205.232 38.3793 201.726 35.7308C198.432 33.2427 193.976 32.332 189.035 32.332V40.332C193.202 40.332 195.61 41.1373 196.904 42.1142C197.984 42.9307 198.763 44.2244 198.763 46.76H206.763ZM189.035 32.332H168.839V40.332H189.035V32.332ZM168.839 32.332C170.074 32.332 170.974 32.9091 171.486 33.421C171.998 33.9329 172.575 34.833 172.575 36.068H164.575C164.575 37.435 165.218 38.4671 165.829 39.078C166.44 39.6888 167.472 40.332 168.839 40.332V32.332ZM172.575 36.068V26.036H164.575V36.068H172.575ZM172.575 26.036C172.575 27.271 171.998 28.1711 171.486 28.6829C170.974 29.1948 170.074 29.772 168.839 29.772V21.772C167.472 21.772 166.44 22.4152 165.829 23.026C165.218 23.6369 164.575 24.669 164.575 26.036H172.575ZM168.839 29.772H175.043V21.772H168.839V29.772ZM175.043 29.772C173.808 29.772 172.908 29.1947 172.396 28.6828C171.884 28.1709 171.307 27.2708 171.307 26.036H179.307C179.307 24.6691 178.664 23.637 178.053 23.0261C177.442 22.4152 176.41 21.772 175.043 21.772V29.772ZM171.307 26.036V30.92H179.307V26.036H171.307ZM175.307 34.92H202.763V26.92H175.307V34.92ZM206.763 30.92V15.344H198.763V30.92H206.763ZM206.763 15.344C206.763 10.8474 205.254 6.87418 201.769 4.16635C198.473 1.60557 194.003 0.651978 189.035 0.651978V8.65198C193.176 8.65198 195.569 9.48039 196.86 10.4836C197.962 11.3398 198.763 12.7125 198.763 15.344H206.763ZM189.035 0.651978H154.847V8.65198H189.035V0.651978ZM154.847 0.651978C149.88 0.651978 145.409 1.60557 142.113 4.16635C138.628 6.87417 137.119 10.8474 137.119 15.344H145.119C145.119 12.7125 145.92 11.3398 147.022 10.4836C148.313 9.48039 150.707 8.65198 154.847 8.65198V0.651978ZM137.119 15.344V46.76H145.119V15.344H137.119ZM137.119 46.76C137.119 51.2565 138.628 55.2298 142.113 57.9376C145.409 60.4984 149.88 61.452 154.847 61.452V53.452C150.707 53.452 148.313 52.6236 147.022 51.6203C145.92 50.7642 145.119 49.3914 145.119 46.76H137.119ZM154.847 61.452H175.043V53.452H154.847V61.452ZM175.043 61.452C173.808 61.452 172.908 60.8748 172.396 60.3629C171.884 59.851 171.307 58.9509 171.307 57.716H179.307C179.307 56.3491 178.664 55.317 178.053 54.7061C177.442 54.0952 176.41 53.452 175.043 53.452V61.452ZM171.307 57.716V67.748H179.307V57.716H171.307ZM171.307 67.748C171.307 66.5131 171.884 65.613 172.396 65.1011C172.908 64.5892 173.808 64.012 175.043 64.012V72.012C176.41 72.012 177.442 71.3687 178.053 70.7578C178.664 70.1469 179.307 69.1148 179.307 67.748H171.307ZM175.043 64.012H168.839V72.012H175.043V64.012ZM168.839 64.012C170.074 64.012 170.974 64.5892 171.486 65.101C171.998 65.6129 172.575 66.513 172.575 67.748H164.575C164.575 69.115 165.218 70.1471 165.829 70.7579C166.44 71.3688 167.472 72.012 168.839 72.012V64.012ZM172.575 67.748V62.732H164.575V67.748H172.575ZM168.575 58.732H141.119V66.732H168.575V58.732ZM137.119 62.732V78.572H145.119V62.732H137.119ZM137.119 78.572C137.119 83.0325 138.65 86.9527 142.157 89.6012C145.45 92.0893 149.906 93 154.847 93V85C150.68 85 148.272 84.1947 146.979 83.2178C145.898 82.4013 145.119 81.1075 145.119 78.572H137.119ZM154.847 93H189.035V85H154.847V93ZM261.325 93C266.266 93 270.721 92.0893 274.015 89.6012C277.521 86.9527 279.053 83.0324 279.053 78.572H271.053C271.053 81.1075 270.274 82.4013 269.193 83.2178C267.9 84.1947 265.491 85 261.325 85V93ZM279.053 78.572V36.332H271.053V78.572H279.053ZM275.053 32.332H247.729V40.332H275.053V32.332ZM243.729 36.332V67.748H251.729V36.332H243.729ZM243.729 67.748C243.729 66.5131 244.306 65.613 244.818 65.1011C245.33 64.5892 246.23 64.012 247.465 64.012V72.012C248.832 72.012 249.864 71.3687 250.475 70.7578C251.086 70.1469 251.729 69.1148 251.729 67.748H243.729ZM247.465 64.012H241.129V72.012H247.465V64.012ZM241.129 64.012C242.364 64.012 243.264 64.5892 243.776 65.1011C244.288 65.6131 244.865 66.5132 244.865 67.748H236.865C236.865 69.1148 237.508 70.1469 238.119 70.7578C238.73 71.3688 239.762 72.012 241.129 72.012V64.012ZM244.865 67.748V30.92H236.865V67.748H244.865ZM240.865 34.92H275.053V26.92H240.865V34.92ZM279.053 30.92V10.064H271.053V30.92H279.053ZM275.053 6.06398H240.865V14.064H275.053V6.06398ZM244.865 10.064V4.65198H236.865V10.064H244.865ZM240.865 0.651978H213.409V8.65198H240.865V0.651978ZM209.409 4.65198V10.064H217.409V4.65198H209.409ZM213.409 6.06398H206.677V14.064H213.409V6.06398ZM202.677 10.064V30.92H210.677V10.064H202.677ZM206.677 34.92H213.409V26.92H206.677V34.92ZM209.409 30.92V78.572H217.409V30.92H209.409ZM209.409 78.572C209.409 83.0325 210.94 86.9527 214.446 89.6012C217.74 92.0893 222.195 93 227.137 93V85C222.97 85 220.561 84.1947 219.268 83.2178C218.187 82.4013 217.409 81.1075 217.409 78.572H209.409ZM227.137 93H261.325V85H227.137V93ZM329.437 119.268C334.378 119.268 338.833 118.357 342.127 115.869C345.633 113.221 347.165 109.3 347.165 104.84H339.165C339.165 107.376 338.386 108.669 337.305 109.486C336.012 110.463 333.603 111.268 329.437 111.268V119.268ZM347.165 104.84V4.65198H339.165V104.84H347.165ZM343.165 0.651978H315.709V8.65198H343.165V0.651978ZM311.709 4.65198V68.012H319.709V4.65198H311.709ZM315.709 64.012H309.241V72.012H315.709V64.012ZM309.241 64.012C310.476 64.012 311.376 64.5892 311.888 65.101C312.399 65.6129 312.977 66.513 312.977 67.748H304.977C304.977 69.115 305.62 70.1471 306.231 70.7579C306.842 71.3688 307.874 72.012 309.241 72.012V64.012ZM312.977 67.748V4.65198H304.977V67.748H312.977ZM308.977 0.651978H281.521V8.65198H308.977V0.651978ZM277.521 4.65198V78.572H285.521V4.65198H277.521ZM277.521 78.572C277.521 83.0324 279.052 86.9527 282.558 89.6012C285.852 92.0893 290.307 93 295.249 93V85C291.082 85 288.673 84.1947 287.38 83.2178C286.299 82.4013 285.521 81.1075 285.521 78.572H277.521ZM295.249 93H315.709V85H295.249V93ZM311.709 89V94.016H319.709V89H311.709ZM311.709 94.016C311.709 92.781 312.286 91.8808 312.798 91.369C313.31 90.8572 314.21 90.28 315.445 90.28V98.28C316.812 98.28 317.844 97.6368 318.454 97.026C319.065 96.4151 319.709 95.383 319.709 94.016H311.709ZM315.445 90.28H213.409V98.28H315.445V90.28ZM209.409 94.28V115.268H217.409V94.28H209.409ZM213.409 119.268H329.437V111.268H213.409V119.268ZM513.229 115.268V94.28H505.229V115.268H513.229ZM509.229 90.28H441.381V98.28H509.229V90.28ZM441.381 90.28C442.616 90.28 443.516 90.8572 444.028 91.3692C444.54 91.8812 445.117 92.7813 445.117 94.016H437.117C437.117 95.3827 437.76 96.4147 438.371 97.0257C438.982 97.6367 440.014 98.28 441.381 98.28V90.28ZM445.117 94.016V53.756H437.117V94.016H445.117ZM445.117 53.756C445.117 50.9522 444.325 48.252 442.266 46.163C440.285 44.1532 437.606 43.1984 434.819 42.8002L433.687 50.7198C435.52 50.9815 436.273 51.4788 436.569 51.779C436.787 52 437.117 52.4678 437.117 53.756H445.117ZM434.72 50.7326C437.488 50.407 440.166 49.4866 442.151 47.4722C444.198 45.3945 444.985 42.6904 444.985 39.896H436.985C436.985 41.1936 436.649 41.6575 436.453 41.8568C436.194 42.1194 435.506 42.5849 433.786 42.7874L434.72 50.7326ZM444.985 39.896V15.344H436.985V39.896H444.985ZM444.985 15.344C444.985 10.8852 443.534 6.90757 440.079 4.18369C436.807 1.60455 432.354 0.651978 427.389 0.651978V8.65198C431.532 8.65198 433.877 9.4814 435.126 10.4663C436.192 11.3064 436.985 12.6748 436.985 15.344H444.985ZM427.389 0.651978H379.473V8.65198H427.389V0.651978ZM375.473 4.65198V89H383.473V4.65198H375.473ZM379.473 93H406.929V85H379.473V93ZM410.929 89V55.208H402.929V89H410.929ZM406.929 59.208H413.397V51.208H406.929V59.208ZM413.397 59.208C412.162 59.208 411.262 58.6307 410.75 58.1188C410.238 57.6068 409.661 56.7067 409.661 55.472H417.661C417.661 54.1053 417.018 53.0732 416.407 52.4622C415.796 51.8512 414.764 51.208 413.397 51.208V59.208ZM409.661 55.472V104.84H417.661V55.472H409.661ZM409.661 104.84C409.661 109.3 411.192 113.221 414.698 115.869C417.992 118.357 422.448 119.268 427.389 119.268V111.268C423.222 111.268 420.814 110.463 419.52 109.486C418.44 108.669 417.661 107.376 417.661 104.84H409.661ZM427.389 119.268H509.229V111.268H427.389V119.268ZM477.773 67.748C477.773 66.513 478.35 65.6129 478.862 65.101C479.374 64.5892 480.274 64.012 481.509 64.012V72.012C482.876 72.012 483.908 71.3688 484.519 70.7579C485.13 70.1471 485.773 69.115 485.773 67.748H477.773ZM481.509 64.012H475.305V72.012H481.509V64.012ZM475.305 64.012C476.54 64.012 477.44 64.5892 477.952 65.101C478.464 65.6129 479.041 66.513 479.041 67.748H471.041C471.041 69.115 471.684 70.1471 472.295 70.7579C472.906 71.3688 473.938 72.012 475.305 72.012V64.012ZM479.041 67.748V26.036H471.041V67.748H479.041ZM479.041 26.036C479.041 27.271 478.464 28.1711 477.952 28.6829C477.44 29.1948 476.54 29.772 475.305 29.772V21.772C473.938 21.772 472.906 22.4152 472.295 23.026C471.684 23.6368 471.041 24.669 471.041 26.036H479.041ZM475.305 29.772H481.509V21.772H475.305V29.772ZM481.509 29.772C480.274 29.772 479.374 29.1948 478.862 28.6829C478.35 28.1711 477.773 27.271 477.773 26.036H485.773C485.773 24.669 485.13 23.6368 484.519 23.026C483.908 22.4152 482.876 21.772 481.509 21.772V29.772ZM477.773 26.036V67.748H485.773V26.036H477.773ZM495.501 93C500.442 93 504.898 92.0893 508.191 89.6012C511.698 86.9527 513.229 83.0324 513.229 78.572H505.229C505.229 81.1075 504.45 82.4013 503.369 83.2178C502.076 84.1947 499.668 85 495.501 85V93ZM513.229 78.572V15.344H505.229V78.572H513.229ZM513.229 15.344C513.229 10.8474 511.72 6.87418 508.235 4.16635C504.939 1.60557 500.468 0.651978 495.501 0.651978V8.65198C499.641 8.65198 502.035 9.48039 503.326 10.4836C504.428 11.3398 505.229 12.7125 505.229 15.344H513.229ZM495.501 0.651978H461.313V8.65198H495.501V0.651978ZM461.313 0.651978C456.345 0.651978 451.875 1.60557 448.579 4.16635C445.094 6.87418 443.585 10.8474 443.585 15.344H451.585C451.585 12.7125 452.386 11.3398 453.488 10.4836C454.779 9.48039 457.172 8.65198 461.313 8.65198V0.651978ZM443.585 15.344V78.572H451.585V15.344H443.585ZM443.585 78.572C443.585 83.0324 445.116 86.9527 448.622 89.6012C451.916 92.0893 456.372 93 461.313 93V85C457.146 85 454.738 84.1947 453.444 83.2178C452.364 82.4013 451.585 81.1075 451.585 78.572H443.585ZM461.313 93H495.501V85H461.313V93ZM599.452 115.268V94.28H591.452V115.268H599.452ZM595.452 90.28H543.312V98.28H595.452V90.28ZM547.312 94.28V4.65198H539.312V94.28H547.312ZM543.312 0.651978H515.856V8.65198H543.312V0.651978ZM511.856 4.65198V115.268H519.856V4.65198H511.856ZM515.856 119.268H595.452V111.268H515.856V119.268ZM599.452 89V68.012H591.452V89H599.452ZM595.452 64.012H577.632V72.012H595.452V64.012ZM581.632 68.012V4.65198H573.632V68.012H581.632ZM577.632 0.651978H550.176V8.65198H577.632V0.651978ZM546.176 4.65198V89H554.176V4.65198H546.176ZM550.176 93H595.452V85H550.176V93ZM648.457 93C653.398 93 657.854 92.0893 661.147 89.6012C664.654 86.9527 666.185 83.0325 666.185 78.572H658.185C658.185 81.1075 657.406 82.4013 656.325 83.2178C655.032 84.1947 652.624 85 648.457 85V93ZM666.185 78.572V62.732H658.185V78.572H666.185ZM662.185 58.732H634.729V66.732H662.185V58.732ZM630.729 62.732V67.748H638.729V62.732H630.729ZM630.729 67.748C630.729 66.5127 631.306 65.6125 631.818 65.1008C632.33 64.5891 633.23 64.012 634.465 64.012V72.012C635.832 72.012 636.864 71.3689 637.475 70.7582C638.085 70.1475 638.729 69.1153 638.729 67.748H630.729ZM634.465 64.012H628.261V72.012H634.465V64.012ZM628.261 64.012C629.496 64.012 630.396 64.5893 630.908 65.1012C631.42 65.6132 631.997 66.5133 631.997 67.748H623.997C623.997 69.1147 624.64 70.1467 625.251 70.7577C625.862 71.3687 626.894 72.012 628.261 72.012V64.012ZM631.997 67.748V57.452H623.997V67.748H631.997ZM627.997 61.452H662.185V53.452H627.997V61.452ZM666.185 57.452V15.344H658.185V57.452H666.185ZM666.185 15.344C666.185 10.8474 664.676 6.87417 661.191 4.16634C657.895 1.60557 653.424 0.651978 648.457 0.651978V8.65198C652.597 8.65198 654.991 9.48039 656.282 10.4836C657.384 11.3398 658.185 12.7125 658.185 15.344H666.185ZM648.457 0.651978H614.269V8.65198H648.457V0.651978ZM614.269 0.651978C609.301 0.651978 604.831 1.60557 601.535 4.16635C598.05 6.87419 596.541 10.8474 596.541 15.344H604.541C604.541 12.7125 605.342 11.3398 606.444 10.4836C607.735 9.48039 610.128 8.65198 614.269 8.65198V0.651978ZM596.541 15.344V78.572H604.541V15.344H596.541ZM596.541 78.572C596.541 83.0324 598.072 86.9527 601.578 89.6012C604.872 92.0893 609.328 93 614.269 93V85C610.102 85 607.694 84.1947 606.4 83.2178C605.32 82.4013 604.541 81.1075 604.541 78.572H596.541ZM614.269 93H648.457V85H614.269V93ZM802.495 115.268V94.28H794.495V115.268H802.495ZM798.495 90.28H730.647V98.28H798.495V90.28ZM730.647 90.28C731.881 90.28 732.781 90.8571 733.293 91.3688C733.805 91.8805 734.383 92.7807 734.383 94.016H726.383C726.383 95.3833 727.026 96.4155 727.637 97.0262C728.248 97.6369 729.28 98.28 730.647 98.28V90.28ZM734.383 94.016V53.756H726.383V94.016H734.383ZM734.383 53.756C734.383 50.9522 733.591 48.252 731.532 46.163C729.551 44.1532 726.872 43.1984 724.084 42.8002L722.953 50.7198C724.785 50.9815 725.538 51.4788 725.834 51.779C726.052 51.9999 726.383 52.4678 726.383 53.756H734.383ZM723.986 50.7326C726.753 50.407 729.431 49.4866 731.417 47.4722C733.464 45.3945 734.251 42.6904 734.251 39.896H726.251C726.251 41.1936 725.915 41.6575 725.719 41.8568C725.46 42.1194 724.772 42.5849 723.051 42.7874L723.986 50.7326ZM734.251 39.896V15.344H726.251V39.896H734.251ZM734.251 15.344C734.251 10.8852 732.8 6.90757 729.344 4.18369C726.073 1.60455 721.62 0.651978 716.655 0.651978V8.65198C720.797 8.65198 723.142 9.4814 724.392 10.4663C725.457 11.3064 726.251 12.6748 726.251 15.344H734.251ZM716.655 0.651978H668.739V8.65198H716.655V0.651978ZM664.739 4.65198V89H672.739V4.65198H664.739ZM668.739 93H696.195V85H668.739V93ZM700.195 89V55.208H692.195V89H700.195ZM696.195 59.208H702.663V51.208H696.195V59.208ZM702.663 59.208C701.428 59.208 700.527 58.6307 700.015 58.1188C699.504 57.6068 698.927 56.7067 698.927 55.472H706.927C706.927 54.1053 706.284 53.0732 705.673 52.4622C705.062 51.8512 704.03 51.208 702.663 51.208V59.208ZM698.927 55.472V104.84H706.927V55.472H698.927ZM698.927 104.84C698.927 109.3 700.458 113.221 703.964 115.869C707.258 118.357 711.713 119.268 716.655 119.268V111.268C712.488 111.268 710.079 110.463 708.786 109.486C707.705 108.669 706.927 107.376 706.927 104.84H698.927ZM716.655 119.268H798.495V111.268H716.655V119.268ZM784.767 93C789.708 93 794.163 92.0893 797.457 89.6012C800.963 86.9527 802.495 83.0324 802.495 78.572H794.495C794.495 81.1075 793.716 82.4013 792.635 83.2178C791.342 84.1947 788.933 85 784.767 85V93ZM802.495 78.572V46.76H794.495V78.572H802.495ZM802.495 46.76C802.495 42.2995 800.963 38.3793 797.457 35.7308C794.163 33.2427 789.708 32.332 784.767 32.332V40.332C788.933 40.332 791.342 41.1373 792.635 42.1142C793.716 42.9307 794.495 44.2244 794.495 46.76H802.495ZM784.767 32.332H764.571V40.332H784.767V32.332ZM764.571 32.332C765.805 32.332 766.705 32.9091 767.217 33.4208C767.729 33.9325 768.307 34.8327 768.307 36.068H760.307C760.307 37.4353 760.95 38.4675 761.561 39.0782C762.172 39.6889 763.204 40.332 764.571 40.332V32.332ZM768.307 36.068V26.036H760.307V36.068H768.307ZM768.307 26.036C768.307 27.2713 767.729 28.1715 767.217 28.6832C766.705 29.1949 765.805 29.772 764.571 29.772V21.772C763.204 21.772 762.172 22.4151 761.561 23.0258C760.95 23.6365 760.307 24.6687 760.307 26.036H768.307ZM764.571 29.772H770.775V21.772H764.571V29.772ZM770.775 29.772C769.539 29.772 768.639 29.1947 768.127 28.6827C767.616 28.1708 767.039 27.2707 767.039 26.036H775.039C775.039 24.6693 774.396 23.6372 773.785 23.0262C773.174 22.4153 772.142 21.772 770.775 21.772V29.772ZM767.039 26.036V30.92H775.039V26.036H767.039ZM771.039 34.92H798.495V26.92H771.039V34.92ZM802.495 30.92V15.344H794.495V30.92H802.495ZM802.495 15.344C802.495 10.8474 800.985 6.87419 797.5 4.16635C794.204 1.60557 789.734 0.651978 784.767 0.651978V8.65198C788.907 8.65198 791.301 9.48039 792.592 10.4836C793.694 11.3398 794.495 12.7125 794.495 15.344H802.495ZM784.767 0.651978H750.579V8.65198H784.767V0.651978ZM750.579 0.651978C745.611 0.651978 741.141 1.60557 737.845 4.16634C734.36 6.87417 732.851 10.8474 732.851 15.344H740.851C740.851 12.7125 741.651 11.3398 742.753 10.4836C744.044 9.48039 746.438 8.65198 750.579 8.65198V0.651978ZM732.851 15.344V46.76H740.851V15.344H732.851ZM732.851 46.76C732.851 51.2565 734.36 55.2298 737.845 57.9376C741.141 60.4984 745.611 61.452 750.579 61.452V53.452C746.438 53.452 744.044 52.6236 742.753 51.6203C741.651 50.7642 740.851 49.3914 740.851 46.76H732.851ZM750.579 61.452H770.775V53.452H750.579V61.452ZM770.775 61.452C769.539 61.452 768.639 60.8747 768.127 60.3627C767.616 59.8508 767.039 58.9507 767.039 57.716H775.039C775.039 56.3493 774.396 55.3172 773.785 54.7062C773.174 54.0953 772.142 53.452 770.775 53.452V61.452ZM767.039 57.716V67.748H775.039V57.716H767.039ZM767.039 67.748C767.039 66.5133 767.615 65.6132 768.127 65.1012C768.639 64.5893 769.539 64.012 770.775 64.012V72.012C772.142 72.012 773.174 71.3687 773.785 70.7577C774.396 70.1468 775.039 69.1147 775.039 67.748H767.039ZM770.775 64.012H764.571V72.012H770.775V64.012ZM764.571 64.012C765.805 64.012 766.705 64.5891 767.217 65.1008C767.729 65.6125 768.307 66.5127 768.307 67.748H760.307C760.307 69.1153 760.95 70.1475 761.561 70.7582C762.172 71.3689 763.204 72.012 764.571 72.012V64.012ZM768.307 67.748V62.732H760.307V67.748H768.307ZM764.307 58.732H736.851V66.732H764.307V58.732ZM732.851 62.732V78.572H740.851V62.732H732.851ZM732.851 78.572C732.851 83.0325 734.382 86.9527 737.888 89.6012C741.182 92.0893 745.637 93 750.579 93V85C746.412 85 744.003 84.1947 742.71 83.2178C741.629 82.4013 740.851 81.1075 740.851 78.572H732.851ZM750.579 93H784.767V85H750.579V93ZM32 15C32 19.4183 28.4183 23 24 23V31C32.8366 31 40 23.8366 40 15H32ZM32 15C32 23.8366 39.1634 31 48 31V23C43.5817 23 40 19.4183 40 15H32ZM48 23C39.1634 23 32 30.1634 32 39H40C40 34.5817 43.5817 31 48 31V23ZM40 39C40 30.1634 32.8366 23 24 23V31C28.4183 31 32 34.5817 32 39H40ZM406 15C406 19.4183 402.418 23 398 23V31C406.837 31 414 23.8366 414 15H406ZM406 15C406 23.8366 413.163 31 422 31V23C417.582 23 414 19.4183 414 15H406ZM422 23C413.163 23 406 30.1634 406 39H414C414 34.5817 417.582 31 422 31V23ZM414 39C414 30.1634 406.837 23 398 23V31C402.418 31 406 34.5817 406 39H414ZM628 15C628 19.4183 624.418 23 620 23V31C628.837 31 636 23.8366 636 15H628ZM628 15C628 23.8366 635.163 31 644 31V23C639.582 23 636 19.4183 636 15H628ZM644 23C635.163 23 628 30.1634 628 39H636C636 34.5817 639.582 31 644 31V23ZM636 39C636 30.1634 628.837 23 620 23V31C624.418 31 628 34.5817 628 39H636ZM695 15C695 19.4183 691.418 23 687 23V31C695.837 31 703 23.8366 703 15H695ZM695 15C695 23.8366 702.163 31 711 31V23C706.582 23 703 19.4183 703 15H695ZM711 23C702.163 23 695 30.1634 695 39H703C703 34.5817 706.582 31 711 31V23ZM703 39C703 30.1634 695.837 23 687 23V31C691.418 31 695 34.5817 695 39H703Z" fill="black" mask="url(#path-1-outside-1_410_34)"/>
</svg>
