<svg width="131" height="112" viewBox="0 0 131 112" fill="none" xmlns="http://www.w3.org/2000/svg">
<path d="M130.435 111.268V90.28H62.4552C62.3232 90.28 62.1912 90.148 62.1912 90.016V49.756C62.1912 45.664 59.9472 43.42 55.3272 42.76C59.8152 42.232 62.0592 39.988 62.0592 35.896V11.344C62.0592 4.21599 57.5712 0.651992 48.4632 0.651992H0.547234V85H28.0032V51.208H34.4712C34.6032 51.208 34.7352 51.34 34.7352 51.472V100.84C34.7352 107.836 39.3552 111.268 48.4632 111.268H130.435ZM34.7352 34.18C34.7352 34.312 34.6032 34.444 34.4712 34.444H28.0032V21.772H34.4712C34.6032 21.772 34.7352 21.904 34.7352 22.036V34.18ZM130.567 85V49.756C130.567 45.664 128.323 43.42 123.703 42.76C128.191 42.232 130.435 39.988 130.435 35.896V11.344C130.435 4.21599 125.947 0.651992 116.839 0.651992H68.9232V85H96.3792V51.208H102.847C102.979 51.208 103.111 51.34 103.111 51.472V85H130.567ZM103.111 34.18C103.111 34.312 102.979 34.444 102.847 34.444H96.3792V21.772H102.847C102.979 21.772 103.111 21.904 103.111 22.036V34.18Z" fill="white"/>
<path d="M130.435 111.268V115.268H134.435V111.268H130.435ZM130.435 90.28H134.435V86.28H130.435V90.28ZM55.3272 42.76L54.8599 38.7874L54.7616 46.7198L55.3272 42.76ZM0.547234 0.651992V-3.34801H-3.45277V0.651992H0.547234ZM0.547234 85H-3.45277V89H0.547234V85ZM28.0032 85V89H32.0032V85H28.0032ZM28.0032 51.208V47.208H24.0032V51.208H28.0032ZM28.0032 34.444H24.0032V38.444H28.0032V34.444ZM28.0032 21.772V17.772H24.0032V21.772H28.0032ZM130.567 85V89H134.567V85H130.567ZM123.703 42.76L123.236 38.7874L123.138 46.7198L123.703 42.76ZM68.9232 0.651992V-3.34801H64.9232V0.651992H68.9232ZM68.9232 85H64.9232V89H68.9232V85ZM96.3792 85V89H100.379V85H96.3792ZM96.3792 51.208V47.208H92.3792V51.208H96.3792ZM103.111 85H99.1112V89H103.111V85ZM96.3792 34.444H92.3792V38.444H96.3792V34.444ZM96.3792 21.772V17.772H92.3792V21.772H96.3792ZM134.435 111.268V90.28H126.435V111.268H134.435ZM130.435 86.28H62.4552V94.28H130.435V86.28ZM62.4552 86.28C63.6902 86.28 64.5903 86.8572 65.1022 87.3691C65.6141 87.881 66.1912 88.7811 66.1912 90.016H58.1912C58.1912 91.3829 58.8344 92.415 59.4453 93.0259C60.0562 93.6368 61.0883 94.28 62.4552 94.28V86.28ZM66.1912 90.016V49.756H58.1912V90.016H66.1912ZM66.1912 49.756C66.1912 46.9522 65.3996 44.252 63.3404 42.163C61.3594 40.1532 58.6806 39.1984 55.8929 38.8002L54.7616 46.7198C56.5939 46.9816 57.3471 47.4788 57.643 47.779C57.8608 48 58.1912 48.4678 58.1912 49.756H66.1912ZM55.7946 46.7326C58.5619 46.407 61.2401 45.4866 63.2252 43.4722C65.2728 41.3945 66.0592 38.6904 66.0592 35.896H58.0592C58.0592 37.1936 57.7236 37.6575 57.5272 37.8568C57.2684 38.1194 56.5805 38.585 54.8599 38.7874L55.7946 46.7326ZM66.0592 35.896V11.344H58.0592V35.896H66.0592ZM66.0592 11.344C66.0592 6.8852 64.6084 2.90758 61.1531 0.183703C57.8814 -2.39543 53.4283 -3.34801 48.4632 -3.34801V4.65199C52.6062 4.65199 54.9511 5.48142 56.2004 6.46628C57.2661 7.3064 58.0592 8.67479 58.0592 11.344H66.0592ZM48.4632 -3.34801H0.547234V4.65199H48.4632V-3.34801ZM-3.45277 0.651992V85H4.54723V0.651992H-3.45277ZM0.547234 89H28.0032V81H0.547234V89ZM32.0032 85V51.208H24.0032V85H32.0032ZM28.0032 55.208H34.4712V47.208H28.0032V55.208ZM34.4712 55.208C33.2363 55.208 32.3362 54.6308 31.8243 54.1189C31.3124 53.6071 30.7352 52.7069 30.7352 51.472H38.7352C38.7352 50.1051 38.092 49.0729 37.4812 48.4621C36.8703 47.8512 35.8382 47.208 34.4712 47.208V55.208ZM30.7352 51.472V100.84H38.7352V51.472H30.7352ZM30.7352 100.84C30.7352 105.3 32.2666 109.221 35.7727 111.869C39.0665 114.357 43.522 115.268 48.4632 115.268V107.268C44.2965 107.268 41.888 106.463 40.5947 105.486C39.5139 104.669 38.7352 103.376 38.7352 100.84H30.7352ZM48.4632 115.268H130.435V107.268H48.4632V115.268ZM30.7352 34.18C30.7352 32.9451 31.3124 32.0449 31.8243 31.5331C32.3362 31.0212 33.2363 30.444 34.4712 30.444V38.444C35.8382 38.444 36.8703 37.8008 37.4812 37.1899C38.092 36.5791 38.7352 35.5469 38.7352 34.18H30.7352ZM34.4712 30.444H28.0032V38.444H34.4712V30.444ZM32.0032 34.444V21.772H24.0032V34.444H32.0032ZM28.0032 25.772H34.4712V17.772H28.0032V25.772ZM34.4712 25.772C33.2363 25.772 32.3362 25.1948 31.8243 24.6829C31.3124 24.1711 30.7352 23.271 30.7352 22.036H38.7352C38.7352 20.669 38.092 19.6369 37.4812 19.0261C36.8703 18.4152 35.8382 17.772 34.4712 17.772V25.772ZM30.7352 22.036V34.18H38.7352V22.036H30.7352ZM134.567 85V49.756H126.567V85H134.567ZM134.567 49.756C134.567 46.9522 133.776 44.252 131.716 42.163C129.735 40.1532 127.057 39.1984 124.269 38.8002L123.138 46.7198C124.97 46.9816 125.723 47.4788 126.019 47.779C126.237 48 126.567 48.4678 126.567 49.756H134.567ZM124.171 46.7326C126.938 46.407 129.616 45.4866 131.601 43.4722C133.649 41.3945 134.435 38.6904 134.435 35.896H126.435C126.435 37.1936 126.1 37.6575 125.903 37.8568C125.644 38.1194 124.957 38.585 123.236 38.7874L124.171 46.7326ZM134.435 35.896V11.344H126.435V35.896H134.435ZM134.435 11.344C134.435 6.8852 132.984 2.90759 129.529 0.183704C126.257 -2.39543 121.804 -3.34801 116.839 -3.34801V4.65199C120.982 4.65199 123.327 5.48142 124.576 6.46628C125.642 7.3064 126.435 8.67479 126.435 11.344H134.435ZM116.839 -3.34801H68.9232V4.65199H116.839V-3.34801ZM64.9232 0.651992V85H72.9232V0.651992H64.9232ZM68.9232 89H96.3792V81H68.9232V89ZM100.379 85V51.208H92.3792V85H100.379ZM96.3792 55.208H102.847V47.208H96.3792V55.208ZM102.847 55.208C101.612 55.208 100.712 54.6308 100.2 54.1189C99.6884 53.607 99.1112 52.7069 99.1112 51.472H107.111C107.111 50.1051 106.468 49.073 105.857 48.4621C105.246 47.8512 104.214 47.208 102.847 47.208V55.208ZM99.1112 51.472V85H107.111V51.472H99.1112ZM103.111 89H130.567V81H103.111V89ZM99.1112 34.18C99.1112 32.9451 99.6884 32.045 100.2 31.5331C100.712 31.0212 101.612 30.444 102.847 30.444V38.444C104.214 38.444 105.246 37.8008 105.857 37.1899C106.468 36.579 107.111 35.5469 107.111 34.18H99.1112ZM102.847 30.444H96.3792V38.444H102.847V30.444ZM100.379 34.444V21.772H92.3792V34.444H100.379ZM96.3792 25.772H102.847V17.772H96.3792V25.772ZM102.847 25.772C101.612 25.772 100.712 25.1948 100.2 24.6829C99.6884 24.171 99.1112 23.2709 99.1112 22.036H107.111C107.111 20.6691 106.468 19.637 105.857 19.0261C105.246 18.4152 104.214 17.772 102.847 17.772V25.772ZM99.1112 22.036V34.18H107.111V22.036H99.1112Z" fill="black"/>
</svg>
