<svg width="803" height="120" viewBox="0 0 803 120" fill="none" xmlns="http://www.w3.org/2000/svg">
<mask id="path-1-outside-1_262_6" maskUnits="userSpaceOnUse" x="0.742432" y="0.651978" width="802" height="119" fill="black">
<rect fill="white" x="0.742432" y="0.651978" width="802" height="119"/>
<path d="M134.63 115.268V94.28H66.6504C66.5184 94.28 66.3864 94.148 66.3864 94.016V53.756C66.3864 49.664 64.1424 47.42 59.5224 46.76C64.0104 46.232 66.2544 43.988 66.2544 39.896V15.344C66.2544 8.21598 61.7664 4.65198 52.6584 4.65198H4.74243V89H32.1984V55.208H38.6664C38.7984 55.208 38.9304 55.34 38.9304 55.472V104.84C38.9304 111.836 43.5504 115.268 52.6584 115.268H134.63ZM38.9304 38.18C38.9304 38.312 38.7984 38.444 38.6664 38.444H32.1984V25.772H38.6664C38.7984 25.772 38.9304 25.904 38.9304 26.036V38.18ZM120.902 89C130.01 89 134.63 85.568 134.63 78.572V4.65198H107.174V67.748C107.174 67.88 107.042 68.012 106.91 68.012H100.706C100.574 68.012 100.442 67.88 100.442 67.748V4.65198H72.9864V78.572C72.9864 85.568 77.6064 89 86.7144 89H120.902Z"/>
<path d="M189.035 89C198.143 89 202.763 85.568 202.763 78.572V46.76C202.763 39.764 198.143 36.332 189.035 36.332H168.839C168.707 36.332 168.575 36.2 168.575 36.068V26.036C168.575 25.904 168.707 25.772 168.839 25.772H175.043C175.175 25.772 175.307 25.904 175.307 26.036V30.92H202.763V15.344C202.763 8.21598 198.143 4.65198 189.035 4.65198H154.847C145.739 4.65198 141.119 8.21598 141.119 15.344V46.76C141.119 53.888 145.739 57.452 154.847 57.452H175.043C175.175 57.452 175.307 57.584 175.307 57.716V67.748C175.307 67.88 175.175 68.012 175.043 68.012H168.839C168.707 68.012 168.575 67.88 168.575 67.748V62.732H141.119V78.572C141.119 85.568 145.739 89 154.847 89H189.035Z"/>
<path d="M261.325 89C270.433 89 275.053 85.568 275.053 78.572V36.332H247.729V67.748C247.729 67.88 247.597 68.012 247.465 68.012H241.129C240.997 68.012 240.865 67.88 240.865 67.748V30.92H275.053V10.064H240.865V4.65198H213.409V10.064H206.677V30.92H213.409V78.572C213.409 85.568 218.029 89 227.137 89H261.325ZM329.437 115.268C338.545 115.268 343.165 111.836 343.165 104.84V4.65198H315.709V68.012H309.241C309.109 68.012 308.977 67.88 308.977 67.748V4.65198H281.521V78.572C281.521 85.568 286.141 89 295.249 89H315.709V94.016C315.709 94.148 315.577 94.28 315.445 94.28H213.409V115.268H329.437Z"/>
<path d="M509.229 115.268V94.28H441.381C441.249 94.28 441.117 94.148 441.117 94.016V53.756C441.117 49.664 438.873 47.42 434.253 46.76C438.741 46.232 440.985 43.988 440.985 39.896V15.344C440.985 8.21598 436.497 4.65198 427.389 4.65198H379.473V89H406.929V55.208H413.397C413.529 55.208 413.661 55.34 413.661 55.472V104.84C413.661 111.836 418.281 115.268 427.389 115.268H509.229ZM413.661 38.18C413.661 38.312 413.529 38.444 413.397 38.444H406.929V25.772H413.397C413.529 25.772 413.661 25.904 413.661 26.036V38.18ZM481.773 67.748C481.773 67.88 481.641 68.012 481.509 68.012H475.305C475.173 68.012 475.041 67.88 475.041 67.748V26.036C475.041 25.904 475.173 25.772 475.305 25.772H481.509C481.641 25.772 481.773 25.904 481.773 26.036V67.748ZM495.501 89C504.609 89 509.229 85.568 509.229 78.572V15.344C509.229 8.21598 504.609 4.65198 495.501 4.65198H461.313C452.205 4.65198 447.585 8.21598 447.585 15.344V78.572C447.585 85.568 452.205 89 461.313 89H495.501Z"/>
<path d="M595.452 115.268V94.28H543.312V4.65198H515.856V115.268H595.452ZM595.452 89V68.012H577.632V4.65198H550.176V89H595.452Z"/>
<path d="M634.729 37.784H627.997V26.036C627.997 25.904 628.129 25.772 628.261 25.772H634.465C634.597 25.772 634.729 25.904 634.729 26.036V37.784ZM648.457 89C657.565 89 662.185 85.568 662.185 78.572V62.732H634.729V67.748C634.729 67.88 634.597 68.012 634.465 68.012H628.261C628.129 68.012 627.997 67.88 627.997 67.748V57.452H662.185V15.344C662.185 8.21598 657.565 4.65198 648.457 4.65198H614.269C605.161 4.65198 600.541 8.21598 600.541 15.344V78.572C600.541 85.568 605.161 89 614.269 89H648.457Z"/>
<path d="M798.495 115.268V94.28H730.647C730.515 94.28 730.383 94.148 730.383 94.016V53.756C730.383 49.664 728.139 47.42 723.519 46.76C728.007 46.232 730.251 43.988 730.251 39.896V15.344C730.251 8.21598 725.763 4.65198 716.655 4.65198H668.739V89H696.195V55.208H702.663C702.795 55.208 702.927 55.34 702.927 55.472V104.84C702.927 111.836 707.547 115.268 716.655 115.268H798.495ZM702.927 38.18C702.927 38.312 702.795 38.444 702.663 38.444H696.195V25.772H702.663C702.795 25.772 702.927 25.904 702.927 26.036V38.18ZM784.767 89C793.875 89 798.495 85.568 798.495 78.572V46.76C798.495 39.764 793.875 36.332 784.767 36.332H764.571C764.439 36.332 764.307 36.2 764.307 36.068V26.036C764.307 25.904 764.439 25.772 764.571 25.772H770.775C770.907 25.772 771.039 25.904 771.039 26.036V30.92H798.495V15.344C798.495 8.21598 793.875 4.65198 784.767 4.65198H750.579C741.471 4.65198 736.851 8.21598 736.851 15.344V46.76C736.851 53.888 741.471 57.452 750.579 57.452H770.775C770.907 57.452 771.039 57.584 771.039 57.716V67.748C771.039 67.88 770.907 68.012 770.775 68.012H764.571C764.439 68.012 764.307 67.88 764.307 67.748V62.732H736.851V78.572C736.851 85.568 741.471 89 750.579 89H784.767Z"/>
</mask>
<path d="M134.63 115.268V94.28H66.6504C66.5184 94.28 66.3864 94.148 66.3864 94.016V53.756C66.3864 49.664 64.1424 47.42 59.5224 46.76C64.0104 46.232 66.2544 43.988 66.2544 39.896V15.344C66.2544 8.21598 61.7664 4.65198 52.6584 4.65198H4.74243V89H32.1984V55.208H38.6664C38.7984 55.208 38.9304 55.34 38.9304 55.472V104.84C38.9304 111.836 43.5504 115.268 52.6584 115.268H134.63ZM38.9304 38.18C38.9304 38.312 38.7984 38.444 38.6664 38.444H32.1984V25.772H38.6664C38.7984 25.772 38.9304 25.904 38.9304 26.036V38.18ZM120.902 89C130.01 89 134.63 85.568 134.63 78.572V4.65198H107.174V67.748C107.174 67.88 107.042 68.012 106.91 68.012H100.706C100.574 68.012 100.442 67.88 100.442 67.748V4.65198H72.9864V78.572C72.9864 85.568 77.6064 89 86.7144 89H120.902Z" fill="white"/>
<path d="M189.035 89C198.143 89 202.763 85.568 202.763 78.572V46.76C202.763 39.764 198.143 36.332 189.035 36.332H168.839C168.707 36.332 168.575 36.2 168.575 36.068V26.036C168.575 25.904 168.707 25.772 168.839 25.772H175.043C175.175 25.772 175.307 25.904 175.307 26.036V30.92H202.763V15.344C202.763 8.21598 198.143 4.65198 189.035 4.65198H154.847C145.739 4.65198 141.119 8.21598 141.119 15.344V46.76C141.119 53.888 145.739 57.452 154.847 57.452H175.043C175.175 57.452 175.307 57.584 175.307 57.716V67.748C175.307 67.88 175.175 68.012 175.043 68.012H168.839C168.707 68.012 168.575 67.88 168.575 67.748V62.732H141.119V78.572C141.119 85.568 145.739 89 154.847 89H189.035Z" fill="white"/>
<path d="M261.325 89C270.433 89 275.053 85.568 275.053 78.572V36.332H247.729V67.748C247.729 67.88 247.597 68.012 247.465 68.012H241.129C240.997 68.012 240.865 67.88 240.865 67.748V30.92H275.053V10.064H240.865V4.65198H213.409V10.064H206.677V30.92H213.409V78.572C213.409 85.568 218.029 89 227.137 89H261.325ZM329.437 115.268C338.545 115.268 343.165 111.836 343.165 104.84V4.65198H315.709V68.012H309.241C309.109 68.012 308.977 67.88 308.977 67.748V4.65198H281.521V78.572C281.521 85.568 286.141 89 295.249 89H315.709V94.016C315.709 94.148 315.577 94.28 315.445 94.28H213.409V115.268H329.437Z" fill="white"/>
<path d="M509.229 115.268V94.28H441.381C441.249 94.28 441.117 94.148 441.117 94.016V53.756C441.117 49.664 438.873 47.42 434.253 46.76C438.741 46.232 440.985 43.988 440.985 39.896V15.344C440.985 8.21598 436.497 4.65198 427.389 4.65198H379.473V89H406.929V55.208H413.397C413.529 55.208 413.661 55.34 413.661 55.472V104.84C413.661 111.836 418.281 115.268 427.389 115.268H509.229ZM413.661 38.18C413.661 38.312 413.529 38.444 413.397 38.444H406.929V25.772H413.397C413.529 25.772 413.661 25.904 413.661 26.036V38.18ZM481.773 67.748C481.773 67.88 481.641 68.012 481.509 68.012H475.305C475.173 68.012 475.041 67.88 475.041 67.748V26.036C475.041 25.904 475.173 25.772 475.305 25.772H481.509C481.641 25.772 481.773 25.904 481.773 26.036V67.748ZM495.501 89C504.609 89 509.229 85.568 509.229 78.572V15.344C509.229 8.21598 504.609 4.65198 495.501 4.65198H461.313C452.205 4.65198 447.585 8.21598 447.585 15.344V78.572C447.585 85.568 452.205 89 461.313 89H495.501Z" fill="white"/>
<path d="M595.452 115.268V94.28H543.312V4.65198H515.856V115.268H595.452ZM595.452 89V68.012H577.632V4.65198H550.176V89H595.452Z" fill="white"/>
<path d="M634.729 37.784H627.997V26.036C627.997 25.904 628.129 25.772 628.261 25.772H634.465C634.597 25.772 634.729 25.904 634.729 26.036V37.784ZM648.457 89C657.565 89 662.185 85.568 662.185 78.572V62.732H634.729V67.748C634.729 67.88 634.597 68.012 634.465 68.012H628.261C628.129 68.012 627.997 67.88 627.997 67.748V57.452H662.185V15.344C662.185 8.21598 657.565 4.65198 648.457 4.65198H614.269C605.161 4.65198 600.541 8.21598 600.541 15.344V78.572C600.541 85.568 605.161 89 614.269 89H648.457Z" fill="white"/>
<path d="M798.495 115.268V94.28H730.647C730.515 94.28 730.383 94.148 730.383 94.016V53.756C730.383 49.664 728.139 47.42 723.519 46.76C728.007 46.232 730.251 43.988 730.251 39.896V15.344C730.251 8.21598 725.763 4.65198 716.655 4.65198H668.739V89H696.195V55.208H702.663C702.795 55.208 702.927 55.34 702.927 55.472V104.84C702.927 111.836 707.547 115.268 716.655 115.268H798.495ZM702.927 38.18C702.927 38.312 702.795 38.444 702.663 38.444H696.195V25.772H702.663C702.795 25.772 702.927 25.904 702.927 26.036V38.18ZM784.767 89C793.875 89 798.495 85.568 798.495 78.572V46.76C798.495 39.764 793.875 36.332 784.767 36.332H764.571C764.439 36.332 764.307 36.2 764.307 36.068V26.036C764.307 25.904 764.439 25.772 764.571 25.772H770.775C770.907 25.772 771.039 25.904 771.039 26.036V30.92H798.495V15.344C798.495 8.21598 793.875 4.65198 784.767 4.65198H750.579C741.471 4.65198 736.851 8.21598 736.851 15.344V46.76C736.851 53.888 741.471 57.452 750.579 57.452H770.775C770.907 57.452 771.039 57.584 771.039 57.716V67.748C771.039 67.88 770.907 68.012 770.775 68.012H764.571C764.439 68.012 764.307 67.88 764.307 67.748V62.732H736.851V78.572C736.851 85.568 741.471 89 750.579 89H784.767Z" fill="white"/>
<path d="M134.63 115.268V94.28H66.6504C66.5184 94.28 66.3864 94.148 66.3864 94.016V53.756C66.3864 49.664 64.1424 47.42 59.5224 46.76C64.0104 46.232 66.2544 43.988 66.2544 39.896V15.344C66.2544 8.21598 61.7664 4.65198 52.6584 4.65198H4.74243V89H32.1984V55.208H38.6664C38.7984 55.208 38.9304 55.34 38.9304 55.472V104.84C38.9304 111.836 43.5504 115.268 52.6584 115.268H134.63ZM38.9304 38.18C38.9304 38.312 38.7984 38.444 38.6664 38.444H32.1984V25.772H38.6664C38.7984 25.772 38.9304 25.904 38.9304 26.036V38.18ZM120.902 89C130.01 89 134.63 85.568 134.63 78.572V4.65198H107.174V67.748C107.174 67.88 107.042 68.012 106.91 68.012H100.706C100.574 68.012 100.442 67.88 100.442 67.748V4.65198H72.9864V78.572C72.9864 85.568 77.6064 89 86.7144 89H120.902Z" stroke="black" stroke-width="8" mask="url(#path-1-outside-1_262_6)"/>
<path d="M189.035 89C198.143 89 202.763 85.568 202.763 78.572V46.76C202.763 39.764 198.143 36.332 189.035 36.332H168.839C168.707 36.332 168.575 36.2 168.575 36.068V26.036C168.575 25.904 168.707 25.772 168.839 25.772H175.043C175.175 25.772 175.307 25.904 175.307 26.036V30.92H202.763V15.344C202.763 8.21598 198.143 4.65198 189.035 4.65198H154.847C145.739 4.65198 141.119 8.21598 141.119 15.344V46.76C141.119 53.888 145.739 57.452 154.847 57.452H175.043C175.175 57.452 175.307 57.584 175.307 57.716V67.748C175.307 67.88 175.175 68.012 175.043 68.012H168.839C168.707 68.012 168.575 67.88 168.575 67.748V62.732H141.119V78.572C141.119 85.568 145.739 89 154.847 89H189.035Z" stroke="black" stroke-width="8" mask="url(#path-1-outside-1_262_6)"/>
<path d="M261.325 89C270.433 89 275.053 85.568 275.053 78.572V36.332H247.729V67.748C247.729 67.88 247.597 68.012 247.465 68.012H241.129C240.997 68.012 240.865 67.88 240.865 67.748V30.92H275.053V10.064H240.865V4.65198H213.409V10.064H206.677V30.92H213.409V78.572C213.409 85.568 218.029 89 227.137 89H261.325ZM329.437 115.268C338.545 115.268 343.165 111.836 343.165 104.84V4.65198H315.709V68.012H309.241C309.109 68.012 308.977 67.88 308.977 67.748V4.65198H281.521V78.572C281.521 85.568 286.141 89 295.249 89H315.709V94.016C315.709 94.148 315.577 94.28 315.445 94.28H213.409V115.268H329.437Z" stroke="black" stroke-width="8" mask="url(#path-1-outside-1_262_6)"/>
<path d="M509.229 115.268V94.28H441.381C441.249 94.28 441.117 94.148 441.117 94.016V53.756C441.117 49.664 438.873 47.42 434.253 46.76C438.741 46.232 440.985 43.988 440.985 39.896V15.344C440.985 8.21598 436.497 4.65198 427.389 4.65198H379.473V89H406.929V55.208H413.397C413.529 55.208 413.661 55.34 413.661 55.472V104.84C413.661 111.836 418.281 115.268 427.389 115.268H509.229ZM413.661 38.18C413.661 38.312 413.529 38.444 413.397 38.444H406.929V25.772H413.397C413.529 25.772 413.661 25.904 413.661 26.036V38.18ZM481.773 67.748C481.773 67.88 481.641 68.012 481.509 68.012H475.305C475.173 68.012 475.041 67.88 475.041 67.748V26.036C475.041 25.904 475.173 25.772 475.305 25.772H481.509C481.641 25.772 481.773 25.904 481.773 26.036V67.748ZM495.501 89C504.609 89 509.229 85.568 509.229 78.572V15.344C509.229 8.21598 504.609 4.65198 495.501 4.65198H461.313C452.205 4.65198 447.585 8.21598 447.585 15.344V78.572C447.585 85.568 452.205 89 461.313 89H495.501Z" stroke="black" stroke-width="8" mask="url(#path-1-outside-1_262_6)"/>
<path d="M595.452 115.268V94.28H543.312V4.65198H515.856V115.268H595.452ZM595.452 89V68.012H577.632V4.65198H550.176V89H595.452Z" stroke="black" stroke-width="8" mask="url(#path-1-outside-1_262_6)"/>
<path d="M634.729 37.784H627.997V26.036C627.997 25.904 628.129 25.772 628.261 25.772H634.465C634.597 25.772 634.729 25.904 634.729 26.036V37.784ZM648.457 89C657.565 89 662.185 85.568 662.185 78.572V62.732H634.729V67.748C634.729 67.88 634.597 68.012 634.465 68.012H628.261C628.129 68.012 627.997 67.88 627.997 67.748V57.452H662.185V15.344C662.185 8.21598 657.565 4.65198 648.457 4.65198H614.269C605.161 4.65198 600.541 8.21598 600.541 15.344V78.572C600.541 85.568 605.161 89 614.269 89H648.457Z" stroke="black" stroke-width="8" mask="url(#path-1-outside-1_262_6)"/>
<path d="M798.495 115.268V94.28H730.647C730.515 94.28 730.383 94.148 730.383 94.016V53.756C730.383 49.664 728.139 47.42 723.519 46.76C728.007 46.232 730.251 43.988 730.251 39.896V15.344C730.251 8.21598 725.763 4.65198 716.655 4.65198H668.739V89H696.195V55.208H702.663C702.795 55.208 702.927 55.34 702.927 55.472V104.84C702.927 111.836 707.547 115.268 716.655 115.268H798.495ZM702.927 38.18C702.927 38.312 702.795 38.444 702.663 38.444H696.195V25.772H702.663C702.795 25.772 702.927 25.904 702.927 26.036V38.18ZM784.767 89C793.875 89 798.495 85.568 798.495 78.572V46.76C798.495 39.764 793.875 36.332 784.767 36.332H764.571C764.439 36.332 764.307 36.2 764.307 36.068V26.036C764.307 25.904 764.439 25.772 764.571 25.772H770.775C770.907 25.772 771.039 25.904 771.039 26.036V30.92H798.495V15.344C798.495 8.21598 793.875 4.65198 784.767 4.65198H750.579C741.471 4.65198 736.851 8.21598 736.851 15.344V46.76C736.851 53.888 741.471 57.452 750.579 57.452H770.775C770.907 57.452 771.039 57.584 771.039 57.716V67.748C771.039 67.88 770.907 68.012 770.775 68.012H764.571C764.439 68.012 764.307 67.88 764.307 67.748V62.732H736.851V78.572C736.851 85.568 741.471 89 750.579 89H784.767Z" stroke="black" stroke-width="8" mask="url(#path-1-outside-1_262_6)"/>
</svg>
