<svg width="40" height="40" viewBox="0 0 40 40" fill="none" xmlns="http://www.w3.org/2000/svg">
<rect width="40" height="40" rx="20" fill="#F5AF37"/>
<path d="M29.543 15.8549C29.5576 16.0664 29.5576 16.278 29.5576 16.4915C29.5576 22.9978 24.6045 30.5015 15.5476 30.5015V30.4976C12.8722 30.5015 10.2523 29.7352 8 28.2902C8.38903 28.337 8.78001 28.3604 9.17197 28.3614C11.3892 28.3633 13.543 27.6194 15.2873 26.2495C13.1803 26.2095 11.3326 24.8357 10.6871 22.8301C11.4252 22.9725 12.1857 22.9432 12.9102 22.7453C10.613 22.2812 8.96039 20.2629 8.96039 17.919C8.96039 17.8975 8.96039 17.877 8.96039 17.8566C9.64485 18.2378 10.4112 18.4494 11.1951 18.4728C9.03157 17.0268 8.36466 14.1486 9.67118 11.8982C12.1711 14.9744 15.8596 16.8445 19.8191 17.0424C19.4223 15.3322 19.9644 13.5402 21.2436 12.338C23.2268 10.4737 26.3459 10.5693 28.2101 12.5515C29.3129 12.3341 30.3698 11.9294 31.337 11.3561C30.9694 12.4959 30.2001 13.4641 29.1725 14.0794C30.1484 13.9643 31.102 13.703 32 13.3042C31.3389 14.2948 30.5063 15.1577 29.543 15.8549Z" fill="black"/>
</svg>
